<svg xmlns="http://www.w3.org/2000/svg" fill="none" viewBox="0 0 16 16"><path d="m8.9 1.5 1.8 4.1 4.4.5c.3 0 .4.4.2.6l-3.3 3 1 4.4c0 .2-.3.5-.6.3l-3.8-2.2-4 2.2c-.2.2-.5 0-.4-.3l1-4.4-3.4-3c-.2-.2-.1-.6.2-.6l4.4-.5 1.9-4c0-.3.4-.3.6 0Z" fill="url(#a)" fill-opacity=".3"/><g clip-path="url(#b)"><path d="m8.9 1.5 1.8 4.1 4.4.5c.3 0 .4.4.2.6l-3.3 3 1 4.4c0 .2-.3.5-.6.3l-3.8-2.2-4 2.2c-.2.2-.5 0-.4-.3l1-4.4-3.4-3c-.2-.2-.1-.6.2-.6l4.4-.5 1.9-4c0-.3.4-.3.6 0Z" fill="url(#c)"/></g><defs><linearGradient id="a" x1="3.6" x2="13.3" y1="1.9" y2="14.9" gradientUnits="userSpaceOnUse"><stop stop-color="#FFDA1C"/><stop offset="1" stop-color="#FEB705"/></linearGradient><linearGradient id="c" x1="3.6" x2="13.3" y1="1.9" y2="14.9" gradientUnits="userSpaceOnUse"><stop stop-color="#FFDA1C"/><stop offset="1" stop-color="#FEB705"/></linearGradient><clipPath id="b"><path d="M1.7 1.3h10.4v13.1H1.7z" fill="#fff"/></clipPath></defs></svg>