<svg width="40" height="40" viewBox="0 0 40 40" fill="none" xmlns="http://www.w3.org/2000/svg">
<path d="M38.2944 19.6032L36.4016 16.2904L36.6384 12.4224C36.6552 12.1448 36.5264 11.8776 36.2984 11.7184L33.1416 9.50797L31.7224 5.95757C31.6184 5.69837 31.3864 5.51117 31.1104 5.46557L27.3224 4.83437L24.48 2.22957C24.272 2.03917 23.98 1.97197 23.7112 2.05277L20 3.15757L16.2888 2.05277C16.02 1.97197 15.728 2.03917 15.52 2.22957L12.6776 4.83517L8.88958 5.46637C8.61358 5.51197 8.38158 5.69917 8.27758 5.95837L6.85838 9.50877L3.70158 11.7192C3.47358 11.8792 3.34478 12.1456 3.36158 12.4232L3.59838 16.2912L1.70558 19.604C1.56478 19.8496 1.56478 20.152 1.70558 20.3976L3.59838 23.7104L3.36158 27.5784C3.34478 27.856 3.47358 28.1232 3.70158 28.2824L6.85838 30.4928L8.27758 34.0432C8.38158 34.3024 8.61358 34.4896 8.88958 34.5352L12.6776 35.1664L15.52 37.772C15.728 37.9624 16.02 38.0288 16.2888 37.9488L20 36.8424L23.7112 37.9472C23.7864 37.9696 23.8624 37.9808 23.9392 37.9808C24.1368 37.9808 24.3296 37.908 24.48 37.7704L27.3224 35.1648L31.1104 34.5336C31.3864 34.488 31.6184 34.3008 31.7224 34.0416L33.1416 30.4912L36.2984 28.2808C36.5264 28.1208 36.6552 27.8544 36.6384 27.5768L36.4016 23.7088L38.2944 20.396C38.4352 20.1512 38.4352 19.8488 38.2944 19.6032ZM18.8024 27.624L11.544 21.0736L12.616 19.8864L18.4776 25.176L27.248 11.5664L28.5936 12.4328L18.8024 27.624Z" fill="#525252"/>
</svg>
