<svg width="40" height="40" viewBox="0 0 40 40" fill="none" xmlns="http://www.w3.org/2000/svg">
<path d="M20 1.60001C19.788 1.59702 19.5775 1.63618 19.3807 1.71525C19.184 1.79431 19.0049 1.91169 18.8539 2.06056C18.7029 2.20943 18.583 2.38682 18.5012 2.58244C18.4194 2.77805 18.3772 2.98797 18.3772 3.20001C18.3772 3.41205 18.4194 3.62198 18.5012 3.81759C18.583 4.0132 18.7029 4.1906 18.8539 4.33947C19.0049 4.48834 19.184 4.60572 19.3807 4.68478C19.5775 4.76384 19.788 4.80301 20 4.80001C28.4137 4.80001 35.2 11.5863 35.2 20C35.2 28.4137 28.4137 35.2 20 35.2C11.5863 35.2 4.8 28.4137 4.8 20C4.8 15.6194 6.64641 11.6865 9.6 8.91564V12C9.597 12.212 9.63617 12.4225 9.71523 12.6193C9.79429 12.816 9.91167 12.9951 10.0605 13.1461C10.2094 13.2971 10.3868 13.417 10.5824 13.4988C10.778 13.5807 10.988 13.6228 11.2 13.6228C11.412 13.6228 11.622 13.5807 11.8176 13.4988C12.0132 13.417 12.1906 13.2971 12.3395 13.1461C12.4883 12.9951 12.6057 12.816 12.6848 12.6193C12.7638 12.4225 12.803 12.212 12.8 12V3.20001H4C3.78798 3.19702 3.57748 3.23619 3.38073 3.31525C3.18398 3.39431 3.00491 3.51169 2.85392 3.66056C2.70292 3.80943 2.58303 3.98682 2.50119 4.18244C2.41935 4.37805 2.37721 4.58797 2.37721 4.80001C2.37721 5.01205 2.41935 5.22198 2.50119 5.41759C2.58303 5.6132 2.70292 5.7906 2.85392 5.93947C3.00491 6.08834 3.18398 6.20572 3.38073 6.28478C3.57748 6.36384 3.78798 6.40301 4 6.40001H7.62031C3.92536 9.7676 1.6 14.6179 1.6 20C1.6 30.1431 9.8569 38.4 20 38.4C30.1431 38.4 38.4 30.1431 38.4 20C38.4 9.85691 30.1431 1.60001 20 1.60001Z" fill="#525252"/>
<path d="M23.3566 23.7852C22.6663 23.5006 21.8125 23.1334 21.8125 22.8488V21.0174C22.8281 20.2448 23.4375 19.0239 23.4375 17.7616V15.3198C23.4375 13.0814 21.6094 11.25 19.375 11.25C17.1406 11.25 15.3125 13.0814 15.3125 15.3198V17.7616C15.3125 19.0239 15.9219 20.2846 16.9375 21.0174V22.8488C16.9375 23.0937 16.0837 23.4593 15.3934 23.7852C13.7288 24.4767 11.25 25.5355 11.25 28.343V28.75H27.5V28.343C27.5 25.5355 25.0212 24.4767 23.3566 23.7852Z" fill="#525252"/>
</svg>
