<svg width="180" height="180" viewBox="0 0 180 180" fill="none" xmlns="http://www.w3.org/2000/svg">
<mask id="mask0_1603_1183" style="mask-type:alpha" maskUnits="userSpaceOnUse" x="0" y="4" width="180" height="172">
<path d="M155.002 25.2049C171.501 40.4012 180.619 63.8469 179.967 86.8584C179.533 109.87 169.113 132.23 152.831 148.729C136.332 165.011 113.972 175.431 91.8289 175.214C69.6858 174.997 47.7597 164.142 30.3926 147.643C13.0254 131.362 0.21709 109.436 0 87.2926C0 65.3665 12.5912 43.2233 29.9584 28.2442C47.3256 13.0479 69.4687 5.01556 92.2631 4.36429C115.275 3.71302 138.72 10.2257 155.002 25.2049Z" fill="url(#paint0_linear_1603_1183)"/>
</mask>
<g mask="url(#mask0_1603_1183)">
<path d="M155.002 24.8846C171.501 40.0809 180.619 63.5266 179.967 86.5381C179.533 109.55 169.113 131.91 152.831 148.409C136.332 164.69 113.972 175.111 91.8289 174.894C69.6858 174.676 47.7597 163.822 30.3926 147.323C13.0254 131.041 0.21709 109.115 0 86.9722C0 65.0462 12.5912 42.903 29.9584 27.9238C47.3256 12.7276 69.4687 4.69525 92.2631 4.04398C115.275 3.39271 138.72 9.9054 155.002 24.8846Z" fill="#F5F1EA"/>
</g>
<path d="M89.8 53.0003C89.376 52.9943 88.955 53.0727 88.5615 53.2308C88.168 53.3889 87.8098 53.6237 87.5078 53.9214C87.2059 54.2192 86.9661 54.5739 86.8024 54.9652C86.6387 55.3564 86.5544 55.7762 86.5544 56.2003C86.5544 56.6244 86.6387 57.0443 86.8024 57.4355C86.9661 57.8267 87.2059 58.1815 87.5078 58.4792C87.8098 58.777 88.168 59.0117 88.5615 59.1699C88.955 59.328 89.376 59.4063 89.8 59.4003C106.627 59.4003 120.2 72.9729 120.2 89.8003C120.2 106.628 106.627 120.2 89.8 120.2C72.9726 120.2 59.4 106.628 59.4 89.8003C59.4 81.039 63.0928 73.1733 69 67.6316V73.8003C68.994 74.2244 69.0723 74.6454 69.2305 75.0389C69.3886 75.4324 69.6233 75.7905 69.9211 76.0925C70.2188 76.3945 70.5736 76.6343 70.9648 76.7979C71.3561 76.9616 71.7759 77.0459 72.2 77.0459C72.6241 77.0459 73.0439 76.9616 73.4352 76.7979C73.8264 76.6343 74.1812 76.3945 74.4789 76.0925C74.7767 75.7905 75.0114 75.4324 75.1695 75.0389C75.3277 74.6454 75.406 74.2244 75.4 73.8003V56.2003H57.8C57.376 56.1943 56.955 56.2727 56.5615 56.4308C56.168 56.5889 55.8098 56.8237 55.5078 57.1214C55.2059 57.4191 54.9661 57.7739 54.8024 58.1652C54.6387 58.5564 54.5544 58.9762 54.5544 59.4003C54.5544 59.8244 54.6387 60.2443 54.8024 60.6355C54.9661 61.0267 55.2059 61.3815 55.5078 61.6792C55.8098 61.977 56.168 62.2117 56.5615 62.3699C56.955 62.528 57.376 62.6063 57.8 62.6003H65.0406C57.6507 69.3355 53 79.036 53 89.8003C53 110.087 69.5138 126.6 89.8 126.6C110.086 126.6 126.6 110.087 126.6 89.8003C126.6 69.5141 110.086 53.0003 89.8 53.0003Z" fill="#F79333"/>
<path d="M106.915 74.0103C106.885 74.0177 106.856 74.0288 106.826 74.0398C106.579 74.1025 106.365 74.261 106.236 74.4821L86.9525 104.381L73.6837 92.4097C73.4515 92.1149 73.0645 91.9859 72.6996 92.0817C72.3347 92.1775 72.0656 92.4834 72.0103 92.8557C71.9551 93.228 72.1246 93.5965 72.4453 93.7956L86.5102 106.534C86.7166 106.714 86.993 106.795 87.2658 106.755C87.5385 106.714 87.7781 106.559 87.9255 106.327L107.829 75.4846C108.046 75.175 108.057 74.7659 107.858 74.4453C107.659 74.1246 107.287 73.9551 106.915 74.0103Z" fill="#F79333" stroke="#525252" stroke-width="4"/>
<defs>
<linearGradient id="paint0_linear_1603_1183" x1="0" y1="175.217" x2="170.667" y2="-4.54069" gradientUnits="userSpaceOnUse">
<stop stop-color="#F87537"/>
<stop offset="1" stop-color="#FBA81F"/>
</linearGradient>
</defs>
</svg>
