<svg width="80" height="80" viewBox="0 0 80 80" fill="none" xmlns="http://www.w3.org/2000/svg">
<path d="M31.9752 1.575C31.0939 1.59375 30.3877 2.31875 30.4002 3.2V12.8C30.3939 13.375 30.6939 13.9125 31.1939 14.2062C31.6939 14.4937 32.3064 14.4937 32.8064 14.2062C33.3064 13.9125 33.6064 13.375 33.6002 12.8V3.2C33.6064 2.76875 33.4377 2.35 33.1314 2.04375C32.8252 1.7375 32.4064 1.56875 31.9752 1.575ZM17.5814 6.3875C16.9314 6.3875 16.3502 6.78125 16.1002 7.38125C15.8564 7.9875 16.0002 8.675 16.4689 9.13125L22.8689 15.5312C23.2689 15.95 23.8689 16.1187 24.4252 15.9687C24.9877 15.825 25.4252 15.3875 25.5689 14.825C25.7189 14.2687 25.5502 13.6687 25.1314 13.2687L18.7314 6.86875C18.4314 6.55625 18.0189 6.3875 17.5814 6.3875ZM46.3689 6.3875C45.9502 6.39375 45.5564 6.56875 45.2689 6.86875L38.8689 13.2687C38.4502 13.6687 38.2814 14.2687 38.4314 14.825C38.5752 15.3875 39.0127 15.825 39.5752 15.9687C40.1314 16.1187 40.7314 15.95 41.1314 15.5312L47.5314 9.13125C48.0064 8.66875 48.1439 7.96875 47.8877 7.3625C47.6314 6.75 47.0314 6.3625 46.3689 6.3875ZM62.6752 8.0125C61.1064 8.0125 59.5314 8.60625 58.3439 9.79375L29.1627 38.975C28.6814 38.0938 28.4439 37.625 27.5502 36.0937C26.0627 33.5625 24.4064 30.8187 22.9002 29.3062C20.5877 26.9937 17.3877 25.3937 14.3877 24.575C12.8939 24.1687 11.4439 23.9562 10.1189 24.0062C8.79395 24.0562 7.5127 24.3375 6.5377 25.3062L3.66895 28.175C3.04395 28.8 3.04395 29.8187 3.66895 30.4437L12.4502 39.225L19.2814 59.7062C19.3627 59.9437 19.4939 60.1562 19.6689 60.3312L32.2314 72.8937C37.3939 78.0562 45.8064 78.0562 50.9689 72.8937L53.7377 70.125H53.0752C53.5002 70.125 53.9064 69.9562 54.2064 69.6562L68.6064 55.2562C70.9814 52.875 70.9814 48.975 68.6064 46.5937C67.6502 45.6375 66.4377 45.175 65.1939 44.9875C65.9564 42.825 65.5252 40.3125 63.8064 38.5937C62.8502 37.6375 61.6377 37.175 60.3939 36.9875C61.1564 34.825 60.7252 32.3125 59.0064 30.5937C58.2439 29.8312 57.3064 29.4062 56.3314 29.1312L67.0064 18.4562C69.3877 16.075 69.3877 12.175 67.0064 9.79375C65.8189 8.60625 64.2439 8.0125 62.6752 8.0125ZM62.6752 11.1875C63.4189 11.1875 64.1627 11.475 64.7439 12.0562C65.9002 13.2125 65.9002 15.0375 64.7439 16.1937L50.3439 30.5937C49.7377 31.225 49.7502 32.2187 50.3689 32.8312C50.9814 33.45 51.9752 33.4625 52.6064 32.8562C53.7627 31.7 55.5877 31.7 56.7439 32.8562C57.9002 34.0125 57.9002 35.8375 56.7439 36.9937L55.1439 38.5937C54.5377 39.225 54.5502 40.2188 55.1689 40.8312C55.7814 41.45 56.7752 41.4625 57.4064 40.8562C58.5627 39.7 60.3877 39.7 61.5439 40.8562C62.7002 42.0125 62.7002 43.8375 61.5439 44.9937L59.9439 46.5937C59.3377 47.225 59.3502 48.2188 59.9689 48.8312C60.5814 49.45 61.5752 49.4625 62.2064 48.8562C63.3627 47.7 65.1877 47.7 66.3439 48.8562C67.5002 50.0125 67.5002 51.8375 66.3439 53L51.9439 67.3937L48.7064 70.6312C44.7689 74.5687 38.4314 74.5687 34.4939 70.6312L22.2002 58.3312L15.3689 37.85C15.2877 37.6187 15.1564 37.4062 14.9814 37.225L7.0627 29.3062L8.8002 27.5687C8.8752 27.4937 9.36895 27.2375 10.2439 27.2062C11.1189 27.175 12.2939 27.325 13.5502 27.6687C16.0564 28.35 18.8689 29.8 20.6439 31.575C21.4814 32.4187 23.3439 35.2438 24.7877 37.7062C26.2314 40.175 27.3877 42.35 27.3877 42.35C27.6252 42.8 28.0627 43.1062 28.5627 43.1812C29.0627 43.2562 29.5752 43.0875 29.9314 42.7312L60.6064 12.0562C61.1877 11.475 61.9314 11.1875 62.6752 11.1875Z" fill="#525252" stroke="#525252" stroke-width="2"/>
<path d="M62.6752 8.01288C61.1064 8.01288 59.5314 8.60663 58.3439 9.79413L29.1627 38.9754C28.6814 38.0941 28.4439 37.6254 27.5502 36.0941C26.0627 33.5629 24.4064 30.8191 22.9002 29.3066C20.5877 26.9941 17.3877 25.3941 14.3877 24.5754C12.8939 24.1691 11.4439 23.9566 10.1189 24.0066C8.79395 24.0566 7.5127 24.3379 6.5377 25.3066L3.66895 28.1754C3.04395 28.8004 3.04395 29.8191 3.66895 30.4441L12.4502 39.2254L19.2814 59.7066C19.3627 59.9441 19.4939 60.1566 19.6689 60.3316L32.2314 72.8941C37.3939 78.0566 45.8064 78.0566 50.9689 72.8941L53.7377 70.1254H53.0752C53.5002 70.1254 53.9064 69.9566 54.2064 69.6566L68.6064 55.2566C70.9814 52.8754 70.9814 48.9754 68.6064 46.5941C67.6502 45.6379 66.4377 45.1754 65.1939 44.9879C65.9564 42.8254 65.5252 40.3129 63.8064 38.5941C62.8502 37.6379 61.6377 37.1754 60.3939 36.9879C61.1564 34.8254 60.7252 32.3129 59.0064 30.5941C58.2439 29.8316 57.3064 29.4066 56.3314 29.1316L67.0064 18.4566C69.3877 16.0754 69.3877 12.1754 67.0064 9.79413C65.8189 8.60663 64.2439 8.01288 62.6752 8.01288ZM62.6752 11.1879C63.4189 11.1879 64.1627 11.4754 64.7439 12.0566C65.9002 13.2129 65.9002 15.0379 64.7439 16.1941L50.3439 30.5941C49.7377 31.2254 49.7502 32.2191 50.3689 32.8316C50.9814 33.4504 51.9752 33.4629 52.6064 32.8566C53.7627 31.7004 55.5877 31.7004 56.7439 32.8566C57.9002 34.0129 57.9002 35.8379 56.7439 36.9941L55.1439 38.5941C54.5377 39.2254 54.5502 40.2191 55.1689 40.8316C55.7814 41.4504 56.7752 41.4629 57.4064 40.8566C58.5627 39.7004 60.3877 39.7004 61.5439 40.8566C62.7002 42.0129 62.7002 43.8379 61.5439 44.9941L59.9439 46.5941C59.3377 47.2254 59.3502 48.2191 59.9689 48.8316C60.5814 49.4504 61.5752 49.4629 62.2064 48.8566C63.3627 47.7004 65.1877 47.7004 66.3439 48.8566C67.5002 50.0129 67.5002 51.8379 66.3439 53.0004L51.9439 67.3941L48.7064 70.6316C44.7689 74.5691 38.4314 74.5691 34.4939 70.6316L22.2002 58.3316L15.3689 37.8504C15.2877 37.6191 15.1564 37.4066 14.9814 37.2254L7.0627 29.3066L8.8002 27.5691C8.8752 27.4941 9.36895 27.2379 10.2439 27.2066C11.1189 27.1754 12.2939 27.3254 13.5502 27.6691C16.0564 28.3504 18.8689 29.8004 20.6439 31.5754C21.4814 32.4191 23.3439 35.2441 24.7877 37.7066C26.2314 40.1754 27.3877 42.3504 27.3877 42.3504C27.6252 42.8004 28.0627 43.1066 28.5627 43.1816C29.0627 43.2566 29.5752 43.0879 29.9314 42.7316L60.6064 12.0566C61.1877 11.4754 61.9314 11.1879 62.6752 11.1879Z" fill="#F79333" stroke="#F79333" stroke-width="2"/>
</svg>
