<svg width="180" height="180" viewBox="0 0 180 180" fill="none" xmlns="http://www.w3.org/2000/svg">
<mask id="mask0_1603_1192" style="mask-type:alpha" maskUnits="userSpaceOnUse" x="4" y="0" width="173" height="180">
<path d="M145.813 21.1212C160.462 35.3124 166.871 57.9725 171.678 81.3192C176.484 104.895 179.918 129.157 169.618 144.264C159.318 159.371 135.513 165.551 113.311 171.502C91.3375 177.453 70.7374 183.404 54.2574 177.682C38.0062 171.96 25.4173 154.564 17.1773 136.71C8.70835 118.628 4.58834 100.088 4.35945 78.5725C3.90167 57.2858 7.33501 33.0235 21.2973 18.6035C35.2595 4.18341 59.7507 -0.623266 83.7841 0.0634032C107.589 0.750072 130.935 6.93009 145.813 21.1212Z" fill="#F9F6EF"/>
</mask>
<g mask="url(#mask0_1603_1192)">
<path d="M145.813 21.1212C160.462 35.3124 166.871 57.9725 171.678 81.3192C176.484 104.895 179.918 129.157 169.618 144.264C159.318 159.371 135.513 165.551 113.311 171.502C91.3375 177.453 70.7374 183.404 54.2574 177.682C38.0062 171.96 25.4173 154.564 17.1773 136.71C8.70835 118.628 4.58834 100.088 4.35945 78.5725C3.90167 57.2858 7.33501 33.0235 21.2973 18.6035C35.2595 4.18341 59.7507 -0.623266 83.7841 0.0634032C107.589 0.750072 130.935 6.93009 145.813 21.1212Z" fill="#F5F1EA"/>
</g>
<g clip-path="url(#clip0_1603_1192)">
<path d="M89.9992 50C83.7617 50 80.1992 50.875 78.0492 51.9C76.9742 52.4125 76.2555 52.9625 75.7992 53.45C75.343 53.9375 75.0492 54.55 75.0492 54.55C74.9992 54.6812 74.968 54.8125 74.9492 54.95L72.3992 77C72.3742 77.2188 72.3867 77.4375 72.4492 77.65C72.443 77.9312 72.3992 78.2 72.3992 78.5C72.3992 88.175 80.3242 96.1 89.9992 96.1C99.6742 96.1 107.599 88.175 107.599 78.5C107.599 78.2188 107.555 77.9688 107.549 77.7C107.618 77.475 107.637 77.2312 107.599 77L105.049 54.95C105.03 54.8125 104.999 54.6812 104.949 54.55C104.949 54.55 104.655 53.9375 104.199 53.45C103.743 52.9625 103.024 52.4125 101.949 51.9C99.7992 50.875 96.2367 50 89.9992 50ZM89.9992 53.2C95.9242 53.2 99.068 54.0688 100.599 54.8C101.362 55.1688 101.737 55.4812 101.899 55.65L103.649 70.8C103.343 70.7 103.018 70.6 102.699 70.55C99.6305 70.0375 95.7992 70.8 89.9992 70.8C87.0992 70.8 84.668 70.625 82.5992 70.5C80.5305 70.375 78.8305 70.2938 77.2992 70.55C76.9805 70.6 76.6555 70.7 76.3492 70.8L78.0992 55.65C78.2617 55.4812 78.6367 55.1688 79.3992 54.8C80.9305 54.0688 84.0742 53.2 89.9992 53.2ZM78.6492 73.6C80.8555 73.5 84.7117 74 89.9992 74C96.043 74 100.224 73.3688 102.199 73.7C103.187 73.8625 103.474 74.0875 103.799 74.65C104.124 75.2125 104.399 76.425 104.399 78.5C104.399 86.425 97.9242 92.9 89.9992 92.9C82.0742 92.9 75.5992 86.425 75.5992 78.5C75.5992 76.425 75.8742 75.2125 76.1992 74.65C76.5242 74.0875 76.8117 73.8625 77.7992 73.7C78.043 73.6562 78.3367 73.6125 78.6492 73.6ZM89.9992 97.7C80.0555 97.7 71.0492 100.144 64.3992 103.75C57.7492 107.356 53.1992 112.112 53.1992 117.35V130H89.6492C89.8617 130.044 90.0867 130.044 90.2992 130H126.799V117.35C126.799 112.112 122.249 107.356 115.599 103.75C111.868 101.725 107.368 100.062 102.399 99C102.124 98.8438 101.812 98.775 101.499 98.8C97.8742 98.0812 94.0242 97.7 89.9992 97.7ZM89.9992 100.9C93.2367 100.9 96.3742 101.15 99.3492 101.65L89.9992 124.2L80.6492 101.65C83.6242 101.15 86.7617 100.9 89.9992 100.9ZM77.4992 102.35L87.5992 126.8H56.3992V117.35C56.3992 114.106 59.7867 109.862 65.8992 106.55C69.1492 104.787 73.1055 103.356 77.4992 102.35ZM102.499 102.35C106.893 103.356 110.849 104.787 114.099 106.55C120.212 109.862 123.599 114.106 123.599 117.35V126.8H92.3992L102.499 102.35Z" fill="#F79333" stroke="#F79333" stroke-width="2"/>
<path d="M88.75 60.75V57H91.25V60.75H95V63.25H91.25V67H88.75V63.25H85V60.75H88.75Z" fill="#525252" stroke="#525252" stroke-width="2"/>
</g>
<defs>
<clipPath id="clip0_1603_1192">
<rect width="80" height="80" fill="white" transform="translate(50 50)"/>
</clipPath>
</defs>
</svg>
