<svg width="28" height="40" viewBox="0 0 28 40" fill="none" xmlns="http://www.w3.org/2000/svg">
<path d="M11.2002 0.800024C10.0986 0.812024 9.03481 1.37789 8.42361 2.38909L8.21111 2.74065C7.90871 3.23985 7.38025 3.54351 6.79705 3.55471L6.38768 3.56409C4.61648 3.60089 3.20104 5.01552 3.16424 6.78752L3.15643 7.1969C3.14443 7.7793 2.8392 8.30856 2.3408 8.61096L1.98924 8.8219C0.474039 9.7387 -0.0432863 11.6746 0.811114 13.2266L1.00799 13.5844C1.28879 14.0956 1.28879 14.7044 1.00799 15.2156L0.811114 15.575C-0.0424864 17.127 0.475601 19.0613 1.9908 19.9781L2.3408 20.1906C2.84 20.493 3.14443 21.0208 3.15643 21.6031L3.16424 22.0125C3.20104 23.7837 4.61648 25.2007 6.38768 25.2375L6.79705 25.2453C7.37945 25.2573 7.90871 25.561 8.21111 26.061L8.42205 26.411C9.04045 27.4326 10.1217 28 11.2361 28C11.7745 28 12.3196 27.8675 12.8252 27.5891L13.1846 27.3922C13.695 27.1106 14.3062 27.1106 14.8174 27.3922L15.1752 27.5891C16.7272 28.4419 18.6623 27.9254 19.5783 26.411L19.7908 26.0594C20.0932 25.5602 20.6217 25.2565 21.2049 25.2453L21.6127 25.236C23.3839 25.1992 24.8009 23.7845 24.8377 22.0125L24.8455 21.6031C24.8575 21.0208 25.1611 20.4915 25.6596 20.1891L26.0111 19.9781C27.5247 19.0613 28.0428 17.127 27.1892 15.575L26.9924 15.2156C26.7116 14.7044 26.7116 14.0956 26.9924 13.5844L27.1892 13.2266C28.0428 11.6746 27.5248 9.7387 26.0096 8.8219L25.6596 8.61096C25.1604 8.30856 24.8559 7.7793 24.8439 7.1969L24.8361 6.78752C24.7993 5.01632 23.3839 3.60089 21.6127 3.56409L21.2033 3.55471C20.6209 3.54271 20.0916 3.23909 19.7892 2.73909L19.5783 2.39065C18.9663 1.37945 17.9018 0.812024 16.8002 0.800024C16.2506 0.793624 15.6912 0.926962 15.1752 1.21096L14.8158 1.40784C14.3054 1.68944 13.6942 1.68944 13.183 1.40784L12.8252 1.21096C12.3092 0.926162 11.7498 0.794424 11.2002 0.800024ZM19.8267 8.86878L21.1752 9.73127L13.5658 21.625L6.86424 15.5938L7.93611 14.4063L13.2346 19.175L19.8267 8.86878ZM23.2908 26.5141C22.778 26.7093 22.2255 26.8255 21.6455 26.8375L21.2361 26.8453C21.2009 26.8461 21.1764 26.8603 21.158 26.8906L20.9455 27.2407C20.1423 28.5686 18.7966 29.4104 17.2814 29.5688L17.0517 30.0953L14.8971 35.0188L16.5158 38.7203C16.6278 38.9771 16.8663 39.1554 17.1439 39.1922C17.1807 39.197 17.215 39.2 17.2502 39.2C17.491 39.2 17.7224 39.0904 17.8752 38.9L20.8361 35.2H26.0517C26.3245 35.2 26.5788 35.0609 26.7252 34.8313C26.8716 34.6017 26.8911 34.3121 26.7767 34.0641L23.2908 26.5141ZM4.75174 26.5282L1.27518 34.0641C1.16078 34.3121 1.17954 34.6001 1.32674 34.8297C1.47234 35.0601 1.72738 35.2 2.00018 35.2H7.2158L10.1767 38.9C10.3287 39.0904 10.5594 39.2 10.8002 39.2C10.8346 39.2 10.8697 39.197 10.9049 39.1922C11.1825 39.1554 11.421 38.9771 11.533 38.7203L15.5861 29.4547C15.1765 29.3523 14.7784 29.1993 14.4064 28.9953L14.0439 28.7969C14.0287 28.7881 14.013 28.7844 13.9986 28.7844C13.985 28.7844 13.9732 28.7881 13.9564 28.7969L13.5971 28.9938C12.8739 29.3914 12.0569 29.6031 11.2361 29.6031C9.51131 29.6031 7.94846 28.7198 7.05486 27.2422L6.84236 26.8906C6.82396 26.8603 6.80024 26.8461 6.76424 26.8453L6.35486 26.8375C5.79086 26.8255 5.25254 26.7137 4.75174 26.5282Z" fill="#525252"/>
</svg>
