<svg width="48" height="48" viewBox="0 0 48 48" fill="none" xmlns="http://www.w3.org/2000/svg">
<rect width="48" height="48" rx="24" fill="black"/>
<path d="M35.5057 18.2294C35.2289 17.2014 34.4184 16.3909 33.3904 16.1141C31.5123 15.6001 23.9999 15.6001 23.9999 15.6001C23.9999 15.6001 16.4876 15.6001 14.6095 16.0943C13.6013 16.3711 12.771 17.2014 12.4942 18.2294C12 20.1075 12 24.002 12 24.002C12 24.002 12 27.9164 12.4942 29.7747C12.771 30.8027 13.5815 31.6132 14.6095 31.89C16.5074 32.404 23.9999 32.404 23.9999 32.404C23.9999 32.404 31.5123 32.404 33.3904 31.9097C34.4184 31.633 35.2289 30.8224 35.5057 29.7944C35.9999 27.9164 35.9999 24.0218 35.9999 24.0218C35.9999 24.0218 36.0197 20.1075 35.5057 18.2294Z" fill="white"/>
<path d="M21.6079 27.5998L27.855 24.0018L21.6079 20.4038V27.5998Z" fill="black"/>
</svg>
